# xmcd
#
# Track frame offsets: 
#        150
#        5163
#        21121
#        39759
#        59752
#        83335
#        111788
#        128127
#        156012
#        174396
#        189018
#        206178
#        228838
#        249907
#        270943
#        289316
#        305495
#        315089
#        334210
#
# Disc length: 4778 seconds
#
# Revision: 2
# Processed by: cddbd v1.5.2PL0 Copyright (c) Steve Scherf et al.
# Submitted via: ExactAudioCopyFreeDBPlugin 1.0
#
DISCID=ef12a813
DTITLE=v\\a - Cardiowave - Четверг... Полночь... Атмосфера
DYEAR=2006
DGENRE=Cardiowave
TTITLE0=Vale - Intro
TTITLE1=TML - Taste Of Freedom
TTITLE2=Amurekimuri - Good Night
TTITLE3=The Клюквінs - (Нас роз'єднають) Зірки
TTITLE4=Aeronautica - Amor
TTITLE5=Библиотека Просперо - Тайны излом
TTITLE6=An Eyeland - Voice Transplant
TTITLE7=Оля and Монстр - Голос
TTITLE8=Sorrow Expert - Движение веры
TTITLE9=Владимир Несси - Трубы-барабаны
TTITLE10=Легендарные Пластилиновые Ноги - 10-й бокал вина
TTITLE11=Masha Moxley and The Клюквінs - It Grows Inside Me
TTITLE12=Ольга Пулатова \\ Алексей Довгалёв - Похмура весна
TTITLE13=Белка и Стрелка - Под водой
TTITLE14=ADDARAЯ - Gюrza Dreaming
TTITLE15=The Клюквінs and Ю. Земляная - Сонечко
TTITLE16=Ceckj - Seasummer (Teil 2)
TTITLE17=М.Р.Ф. - Daisies
TTITLE18=[Dolph[IN]Tensions] - Ноябрь. 19
EXTD=
EXTT0=
EXTT1=
EXTT2=
EXTT3=
EXTT4=
EXTT5=
EXTT6=
EXTT7=
EXTT8=
EXTT9=
EXTT10=
EXTT11=
EXTT12=
EXTT13=
EXTT14=
EXTT15=
EXTT16=
EXTT17=
EXTT18=
PLAYORDER=
